<?xml version="1.0" encoding="UTF-8" standalone="no"?>
<!-- Generator: Adobe Illustrator 16.2.1, SVG Export Plug-In . SVG Version: 6.00 Build 0)  -->

<svg
   xmlns:dc="http://purl.org/dc/elements/1.1/"
   xmlns:cc="http://creativecommons.org/ns#"
   xmlns:rdf="http://www.w3.org/1999/02/22-rdf-syntax-ns#"
   xmlns:svg="http://www.w3.org/2000/svg"
   xmlns="http://www.w3.org/2000/svg"
   xmlns:sodipodi="http://sodipodi.sourceforge.net/DTD/sodipodi-0.dtd"
   xmlns:inkscape="http://www.inkscape.org/namespaces/inkscape"
   version="1.1"
   id="Layer_1"
   x="0px"
   y="0px"
   width="512px"
   height="512px"
   viewBox="0 0 512 512"
   style="enable-background:new 0 0 512 512;"
   xml:space="preserve"
   inkscape:version="0.48.5 r10040"
   sodipodi:docname="ios-close.svg"><metadata
     id="metadata13"><rdf:RDF><cc:Work
         rdf:about=""><dc:format>image/svg+xml</dc:format><dc:type
           rdf:resource="http://purl.org/dc/dcmitype/StillImage" /><dc:title></dc:title></cc:Work></rdf:RDF></metadata><defs
     id="defs11" /><sodipodi:namedview
     pagecolor="#ffffff"
     bordercolor="#666666"
     borderopacity="1"
     objecttolerance="10"
     gridtolerance="10"
     guidetolerance="10"
     inkscape:pageopacity="0"
     inkscape:pageshadow="2"
     inkscape:window-width="1640"
     inkscape:window-height="933"
     id="namedview9"
     showgrid="false"
     showguides="true"
     inkscape:guide-bbox="true"
     inkscape:zoom="1.050338"
     inkscape:cx="111.68245"
     inkscape:cy="256"
     inkscape:window-x="71"
     inkscape:window-y="40"
     inkscape:window-maximized="0"
     inkscape:current-layer="Layer_1"><sodipodi:guide
       orientation="0,1"
       position="258.01218,464.61235"
       id="guide3854" /><sodipodi:guide
       orientation="1,0"
       position="46.65165,241.82692"
       id="guide3856" /><sodipodi:guide
       orientation="0,1"
       position="292.28687,47.603724"
       id="guide3858" /><sodipodi:guide
       orientation="1,0"
       position="463.66027,196.12734"
       id="guide3860" /></sodipodi:namedview><style
     type="text/css"
     id="style3">
	.st0{fill:#010101;}
</style><path
     style="fill:#000000;fill-opacity:1;stroke:none"
     d="M 256 47.375 C 140.84625 47.375 47.5 140.75249 47.5 255.90625 C 47.5 371.06001 140.84625 464.40625 256 464.40625 C 371.15375 464.40625 464.53125 371.06001 464.53125 255.90625 C 464.53125 140.75249 371.15375 47.375 256 47.375 z M 252.84375 77.125 C 331.40581 75.930144 406.07709 128.2204 429.25 208 C 434.36769 225.61914 436.45543 267.91333 433.09375 285.59375 C 425.76088 324.16011 407.91585 357.06753 379.75 383.96875 C 353.62031 408.92522 326.0869 423.45526 290.59375 430.96875 C 278.78521 433.46848 237.61721 434.44306 227.84375 432.46875 C 181.81864 423.17138 144.60418 401.85169 118 369.5 C 36.510291 270.40547 80.797651 123.62893 203.84375 85.03125 C 220.05955 79.944603 236.53842 77.372989 252.84375 77.125 z M 256.1875 98.65625 C 242.51926 98.65625 228.87898 99.992255 218.40625 102.65625 C 163.30701 116.67209 121.06624 156.85055 103.71875 211.8125 C 99.86825 224.01199 99.28125 229.66866 99.28125 255 C 99.28125 288.93582 101.51026 299.32821 114.3125 325.53125 C 135.67051 369.24596 180.47836 402.97815 227.84375 410.96875 C 242.96256 413.51933 270.78474 413.21452 285.8125 410.34375 C 349.27276 398.22097 400.28456 347.20625 412 284.15625 C 414.95992 268.22661 414.53793 240.17694 411.0625 223.4375 C 398.88597 164.78898 353.24669 117.72709 294 102.65625 C 283.52728 99.992255 269.85574 98.65625 256.1875 98.65625 z M 253.15625 122.1875 C 266.60685 122.26092 286.97562 124.2033 288.71875 125.9375 C 289.32556 126.5412 257.91268 213.50015 256.625 214.78125 C 256.28867 215.11584 248.69233 195.31427 239.75 170.78125 C 221.12179 119.67537 220.52382 124.93919 245.25 122.46875 C 247.30111 122.26382 250.05226 122.17056 253.15625 122.1875 z M 188.21875 140.59375 L 208.03125 194.96875 L 227.84375 249.34375 L 256.40625 249.375 L 285 249.375 L 304.375 196.25 C 315.03773 167.02749 324.102 142.74507 324.5 142.3125 C 327.08184 139.50646 357.32572 165.03726 357.375 170.0625 C 357.4223 174.89264 303.62804 313.29944 302.28125 311.8125 C 301.62948 311.09293 296.93876 299.68896 291.875 286.5 L 282.6875 262.53125 L 255 262.53125 L 227.34375 262.53125 L 218.6875 284.625 C 213.92978 296.77952 209.35385 308.54252 208.53125 310.75 C 207.37084 313.86402 200.81064 298.67821 179.1875 243.03125 L 151.3125 171.3125 L 164.28125 159.09375 C 171.4139 152.36997 179.7021 145.44641 182.71875 143.71875 L 188.21875 140.59375 z M 382.9375 212.09375 C 385.14411 211.96127 389.46087 240.888 389.4375 256.3125 C 389.3893 288.13409 380.46567 313.55834 360.4375 338.90625 C 352.10678 349.44969 332.51811 366.51717 322.1875 372.21875 C 321.04375 372.84999 334.03861 337.28079 351.0625 293.15625 C 368.08639 249.03173 382.32277 212.61269 382.71875 212.21875 C 382.78528 212.15256 382.86632 212.09802 382.9375 212.09375 z M 128.4375 217.40625 C 129.54506 217.40625 143.65027 253.21632 185.65625 362.6875 C 187.54166 367.60102 188.88071 371.62525 188.625 371.625 C 188.36931 371.62477 182.21626 367.1805 174.96875 361.75 C 158.54918 349.44687 145.70145 333.74734 136.0625 314.25 C 125.79247 293.47609 122.22865 278.49495 122.1875 255.9375 C 122.1549 238.11412 125.51696 217.40625 128.4375 217.40625 z M 255.21875 297.59375 C 255.73344 298.10581 263.58253 317.71398 272.65625 341.15625 C 283.51755 369.21673 288.5105 384.43329 287.28125 385.65625 C 284.93486 387.99062 237.56403 388.90243 229.15625 386.78125 C 225.72429 385.91541 222.46449 384.77412 221.90625 384.21875 C 221.34803 383.66337 228.41115 363.73121 237.59375 339.9375 C 246.77635 316.14377 254.70406 297.0817 255.21875 297.59375 z "
     id="path3862" /><g
     id="g5" /></svg>