<?xml version="1.0" encoding="UTF-8" standalone="no"?>
<!-- Created with Inkscape (http://www.inkscape.org/) -->

<svg
   xmlns:dc="http://purl.org/dc/elements/1.1/"
   xmlns:cc="http://creativecommons.org/ns#"
   xmlns:rdf="http://www.w3.org/1999/02/22-rdf-syntax-ns#"
   xmlns:svg="http://www.w3.org/2000/svg"
   xmlns="http://www.w3.org/2000/svg"
   xmlns:xlink="http://www.w3.org/1999/xlink"
   xmlns:sodipodi="http://sodipodi.sourceforge.net/DTD/sodipodi-0.dtd"
   xmlns:inkscape="http://www.inkscape.org/namespaces/inkscape"
   width="744.09448819"
   height="1052.3622047"
   id="svg2"
   version="1.1"
   inkscape:version="0.48.5 r10040"
   sodipodi:docname="logo.svg">
  <defs
     id="defs4">
    <filter
       style="color-interpolation-filters:sRGB;"
       inkscape:label="Drop Shadow"
       id="filter3894">
      <feFlood
         flood-opacity="0.5"
         flood-color="rgb(0,0,0)"
         result="flood"
         id="feFlood3896" />
      <feComposite
         in="flood"
         in2="SourceGraphic"
         operator="in"
         result="composite1"
         id="feComposite3898" />
      <feGaussianBlur
         in="composite"
         stdDeviation="2.5"
         result="blur"
         id="feGaussianBlur3900" />
      <feOffset
         dx="0.5"
         dy="1.8"
         result="offset"
         id="feOffset3902" />
      <feComposite
         in="SourceGraphic"
         in2="offset"
         operator="over"
         result="composite2"
         id="feComposite3904" />
    </filter>
  </defs>
  <sodipodi:namedview
     id="base"
     pagecolor="#ffffff"
     bordercolor="#666666"
     borderopacity="1.0"
     inkscape:pageopacity="0.0"
     inkscape:pageshadow="2"
     inkscape:zoom="0.57848045"
     inkscape:cx="429.21019"
     inkscape:cy="551.10138"
     inkscape:document-units="px"
     inkscape:current-layer="layer1"
     showgrid="false"
     inkscape:window-width="1667"
     inkscape:window-height="926"
     inkscape:window-x="20"
     inkscape:window-y="20"
     inkscape:window-maximized="0" />
  <metadata
     id="metadata7">
    <rdf:RDF>
      <cc:Work
         rdf:about="">
        <dc:format>image/svg+xml</dc:format>
        <dc:type
           rdf:resource="http://purl.org/dc/dcmitype/StillImage" />
        <dc:title></dc:title>
      </cc:Work>
    </rdf:RDF>
  </metadata>
  <g
     inkscape:label="Layer 1"
     inkscape:groupmode="layer"
     id="layer1">
    <rect
       style="fill:#43cee6;fill-opacity:1;stroke:none"
       id="rect3830"
       width="339.89999"
       height="340"
       x="14.01989"
       y="345.74561"
       ry="0"
       inkscape:export-filename="/Users/michael/Development/Html/skveege/platforms/ios/skveege/Resources/icons/icon-small.png"
       inkscape:export-xdpi="7.6799998"
       inkscape:export-ydpi="7.6799998" />
    <path
       sodipodi:nodetypes="sssscsscsscssssssccsscsssssssssssssssss"
       inkscape:connector-curvature="0"
       id="use3052"
       d="m 216.05504,307.16666 c -3.10641,-2.07779 -17.71924,-49.33153 -23.28033,-75.28196 -4.52456,-21.11346 -7.78085,-26.80651 -15.33273,-26.80651 -3.96552,0 -8.8818,-3.3915 -13.79598,-9.51716 l -7.63491,-9.51714 -34.60765,11.01157 c -19.0342,6.05637 -39.270018,11.21727 -44.968466,11.46865 l -10.360832,0.45707 -9.79659,-27.82896 c -9.866428,-28.02734 -17.242824,-42.7047 -26.873979,-53.47314 -2.874841,-3.21432 -4.668292,-6.40291 -3.98545,-7.08578 2.143575,-2.14355 20.295822,24.02108 29.790711,42.94031 5.003429,9.96963 9.620955,18.12662 10.261202,18.12662 0.640247,0 12.008911,-3.41559 25.263656,-7.59018 39.648578,-12.48736 115.023328,-35.37417 159.403328,-48.4013 22.89756,-6.72124 42.43849,-12.70471 43.42428,-13.29661 2.69892,-1.62052 -7.08013,-28.1278 -16.36168,-44.350277 -8.48886,-14.836915 -20.48205,-28.407751 -36.16958,-40.927381 -8.33409,-6.802916 -11.76282,-8.726311 -0.35018,-2.459458 15.99909,8.785325 36.03951,34.093059 52.38488,66.153438 8.53459,16.740038 15.83259,34.374488 16.21779,39.187638 l 0.70038,8.75121 -33.82594,10.88269 c -18.60427,5.98547 -38.50953,12.10536 -44.23392,13.59979 -10.12147,2.64233 -10.42747,3.05337 -11.11549,14.93223 -0.48795,8.42401 -2.22189,13.27582 -5.58687,15.63274 -4.18388,2.93049 -4.53601,4.94576 -2.47047,14.13882 1.32489,5.89666 4.00091,13.81819 5.94673,17.60339 4.15693,8.08653 22.33309,68.09632 22.33309,73.73417 0,6.80929 -18.06766,12.53563 -24.975,7.91552 z M 182.05209,188.35545 c 1.69989,-4.42979 -4.69446,-10.45568 -8.55996,-8.06665 -1.49378,0.92321 -2.71597,3.95126 -2.71597,6.72899 0,5.96299 9.08734,7.04105 11.27593,1.33766 z m 29.055,-10.81504 c 0,-3.19085 -2.10871,-5.28665 -5.85449,-5.81863 -4.38538,-0.62281 -5.85449,0.46542 -5.85449,4.33667 0,5.13592 4.12924,8.36406 9.10699,7.1196 1.43109,-0.35777 2.60199,-2.89472 2.60199,-5.63764 z"
       style="fill:#000000;fill-opacity:0.69615383" />
    <use
       x="0"
       y="0"
       xlink:href="#use3052"
       id="use3824"
       transform="translate(368.60994,-3.0049723)"
       width="744.09448"
       height="1052.3622"
       style="fill:#000000;fill-opacity:0.99615383000000002;stroke:none;stroke-opacity:1" />
    <path
       style="fill:#000000;fill-opacity:0.99615383;stroke:none"
       d="m 585.31339,303.4032 c -3.56546,-3.56547 -13.12007,-33.45457 -21.77415,-68.11476 -2.75107,-11.01823 -5.72616,-21.9657 -6.61133,-24.32771 -2.04394,-5.45417 -5.96108,-8.75471 -11.4277,-9.62885 -3.40385,-0.5443 -5.35461,-1.7691 -9.4009,-5.90242 -2.80818,-2.86858 -6.47551,-6.97363 -8.14963,-9.12232 l -3.04383,-3.90672 -20.95333,6.59518 c -38.75095,12.19711 -51.51252,15.4619 -62.36414,15.95465 l -6.3528,0.28847 -1.35884,-3.5058 c -0.74736,-1.92819 -4.34983,-11.8446 -8.00549,-22.03646 -7.70057,-21.46896 -12.92817,-33.52411 -18.5507,-42.77899 -2.20106,-3.62302 -3.7891,-6.80014 -3.52897,-7.06026 0.75581,-0.75582 10.87634,15.29833 18.1934,28.86007 8.52294,15.79679 11.16722,19.97752 12.63565,19.97752 1.40622,0 15.59252,-4.24807 66.90923,-20.0359 21.21009,-6.52539 63.5802,-19.3983 94.15579,-28.60647 30.5756,-9.20817 58.07109,-17.49286 61.10111,-18.41041 4.8001,-1.45358 5.55117,-2.02903 5.83593,-4.47131 0.4787,-4.10577 -5.38228,-20.320183 -12.51546,-34.624034 -3.42661,-6.871233 -6.07619,-12.647172 -5.88794,-12.835419 0.78631,-0.786313 14.31127,23.070352 21.06893,37.163445 8.42833,17.577338 12.53334,28.896598 12.53334,34.559808 l 0,3.98858 -17.27859,5.53714 c -9.50322,3.04543 -28.54723,8.98219 -42.32002,13.1928 -16.05044,4.90693 -25.62744,8.33571 -26.67356,9.54974 -0.94974,1.1022 -1.92078,4.73686 -2.32255,8.69348 -1.03213,10.16449 -2.22671,13.728 -6.19358,18.47605 -3.33349,3.98991 -3.55633,4.66671 -3.02201,9.17816 0.31727,2.67884 2.43436,10.12566 4.70464,16.5485 9.20294,26.03594 12.3228,35.56085 17.60484,53.7475 3.04009,10.46732 5.77526,21.10299 6.07817,23.63483 0.50526,4.22318 0.31324,4.7689 -2.32504,6.60799 -6.20104,4.32258 -17.69401,5.88037 -20.76047,2.81392 l 0,0 z M 549.60941,187.70972 c 1.10183,-1.10183 2.00332,-2.92529 2.00332,-4.05216 0,-2.80629 -4.38561,-6.96608 -7.34426,-6.96608 -2.91866,0 -4.21748,1.4428 -5.12605,5.69428 -1.29425,6.05622 6.01628,9.77467 10.46699,5.32396 z m 29.86428,-10.26699 c 1.24561,-4.6422 0.0315,-7.07531 -4.24709,-8.51144 -5.0296,-1.68819 -7.58735,-0.3058 -7.58735,4.10076 0,4.47176 3.13461,7.66606 7.5228,7.66606 3.03199,0 3.54133,-0.38457 4.31164,-3.25538 l 0,0 z"
       id="path3826"
       inkscape:connector-curvature="0" />
    <use
       x="0"
       y="0"
       xlink:href="#use3052"
       id="use3828"
       transform="translate(421.06771,336.92849)"
       width="744.09448"
       height="1052.3622"
       style="fill:#ffffff;fill-opacity:0.99615383" />
    <path
       style="fill:#ffffff;fill-opacity:0.99615383;stroke:none;filter:url(#filter3894)"
       d="m 223.7051,641.60799 c -3.56546,-3.56547 -13.12007,-33.45457 -21.77415,-68.11476 -2.75107,-11.01823 -5.72616,-21.9657 -6.61133,-24.32771 -2.04394,-5.45417 -5.96108,-8.75471 -11.4277,-9.62885 -3.40385,-0.5443 -5.35461,-1.7691 -9.4009,-5.90242 -2.80818,-2.86858 -6.47551,-6.97363 -8.14963,-9.12232 l -3.04384,-3.90672 -20.95332,6.59518 c -38.75094,12.19711 -51.512512,15.4619 -62.364132,15.95465 l -6.3528,0.28847 -1.35884,-3.5058 c -0.74736,-1.92819 -4.34983,-11.8446 -8.00548,-22.03646 -7.70057,-21.46896 -12.92818,-33.52411 -18.55071,-42.77899 -2.20106,-3.62302 -3.7891,-6.80014 -3.52897,-7.06026 0.75581,-0.75582 10.87635,15.29833 18.1934,28.86007 8.52294,15.79679 11.16722,19.97752 12.63565,19.97752 1.40622,0 15.59252,-4.24807 66.909212,-20.0359 21.2101,-6.52539 63.58021,-19.3983 94.1558,-28.60647 30.5756,-9.20817 58.07109,-17.49286 61.10111,-18.41041 4.8001,-1.45358 5.55117,-2.02903 5.83592,-4.47131 0.47871,-4.10577 -5.38227,-20.32018 -12.51546,-34.62403 -3.42661,-6.87124 -6.07618,-12.64718 -5.88793,-12.83542 0.78631,-0.78632 14.31127,23.07035 21.06892,37.16344 8.42834,17.57734 12.53335,28.8966 12.53335,34.55981 l 0,3.98858 -17.27859,5.53714 c -9.50322,3.04543 -28.54723,8.98219 -42.32002,13.19279 -16.05044,4.90694 -25.62744,8.33572 -26.67356,9.54975 -0.94974,1.1022 -1.92078,4.73686 -2.32255,8.69348 -1.03213,10.16449 -2.22671,13.728 -6.19358,18.47605 -3.33349,3.98991 -3.55633,4.66671 -3.02201,9.17816 0.31727,2.67884 2.43436,10.12566 4.70464,16.5485 9.20294,26.03594 12.3228,35.56085 17.60484,53.74749 3.04009,10.46733 5.77526,21.103 6.07817,23.63484 0.50526,4.22318 0.31324,4.7689 -2.32504,6.60799 -6.20104,4.32258 -17.69402,5.88037 -20.76047,2.81392 l 0,0 z M 188.00112,525.91451 c 1.10182,-1.10183 2.00332,-2.92529 2.00332,-4.05216 0,-2.80629 -4.38561,-6.96608 -7.34426,-6.96608 -2.91867,0 -4.21749,1.4428 -5.12605,5.69428 -1.29425,6.05622 6.01628,9.77467 10.46699,5.32396 z m 29.86428,-10.26699 c 1.24561,-4.6422 0.0316,-7.07531 -4.24709,-8.51144 -5.0296,-1.68819 -7.58735,-0.3058 -7.58735,4.10076 0,4.47176 3.13461,7.66606 7.5228,7.66606 3.03199,0 3.54133,-0.38457 4.31164,-3.25538 l 0,0 z"
       id="path3832"
       inkscape:connector-curvature="0"
       inkscape:export-filename="/Users/michael/Development/Html/skveege/platforms/ios/skveege/Resources/icons/icon-small.png"
       inkscape:export-xdpi="7.6799998"
       inkscape:export-ydpi="7.6799998" />
  </g>
</svg>
